<svg width="122" height="50" viewBox="0 0 122 50" fill="none" xmlns="http://www.w3.org/2000/svg">
<path d="M20.75 23.7344C21 23.8281 21.2656 23.9115 21.5469 23.9844C21.8385 24.0573 22.125 24.1198 22.4062 24.1719C22.6979 24.2135 22.9792 24.2552 23.25 24.2969C23.5312 24.3281 23.7812 24.349 24 24.3594C24.3958 23.151 24.8906 22.026 25.4844 20.9844C26.0781 19.9427 26.724 18.9948 27.4219 18.1406C28.1302 17.2865 28.8698 16.5312 29.6406 15.875C30.4219 15.2188 31.1927 14.6667 31.9531 14.2188C32.724 13.7604 33.4635 13.4167 34.1719 13.1875C34.8906 12.9583 35.5469 12.8438 36.1406 12.8438C36.901 12.8438 37.5104 13.0417 37.9688 13.4375C38.4375 13.8333 38.6719 14.4479 38.6719 15.2812C38.6719 15.7708 38.5312 16.3177 38.25 16.9219C37.9792 17.526 37.5885 18.151 37.0781 18.7969C36.5677 19.4323 35.9479 20.0729 35.2188 20.7188C34.4896 21.3646 33.6667 21.9792 32.75 22.5625C31.8438 23.1354 30.849 23.6615 29.7656 24.1406C28.6927 24.6094 27.5573 24.9896 26.3594 25.2812C25.8906 26.5521 25.4062 27.849 24.9062 29.1719C24.4062 30.4844 23.875 31.7969 23.3125 33.1094C22.75 34.4115 22.1406 35.6875 21.4844 36.9375C20.8385 38.1875 20.1198 39.3802 19.3281 40.5156C20.2552 41.3385 21.1719 42.1458 22.0781 42.9375C22.9948 43.7396 23.9271 44.4531 24.875 45.0781C25.8229 45.7031 26.8021 46.2031 27.8125 46.5781C28.8229 46.9635 29.8906 47.1562 31.0156 47.1562C32.2448 47.1562 33.5573 46.8854 34.9531 46.3438C36.349 45.8021 37.8646 44.8958 39.5 43.625C40.6042 42.8958 41.5208 42.3594 42.25 42.0156C42.9792 41.6719 43.5104 41.5 43.8438 41.5C44.1042 41.5 44.2344 41.599 44.2344 41.7969C44.2344 42.0781 43.9323 42.5469 43.3281 43.2031C42.7344 43.8698 41.7917 44.7083 40.5 45.7188C39.625 46.4271 38.7865 47.0312 37.9844 47.5312C37.1927 48.0312 36.4219 48.4375 35.6719 48.75C34.9323 49.0625 34.2188 49.2917 33.5312 49.4375C32.8438 49.5833 32.1823 49.6562 31.5469 49.6562C30.2865 49.6562 29.0938 49.4115 27.9688 48.9219C26.8438 48.4427 25.7552 47.8177 24.7031 47.0469C23.651 46.276 22.6094 45.4115 21.5781 44.4531C20.5573 43.4948 19.5156 42.5365 18.4531 41.5781C17.7656 42.3906 17.0312 43.1302 16.25 43.7969C15.4688 44.474 14.6302 45.0521 13.7344 45.5312C12.849 46.0208 11.901 46.3958 10.8906 46.6562C9.89062 46.9271 8.82292 47.0625 7.6875 47.0625C6.375 47.0625 5.23438 46.875 4.26562 46.5C3.29688 46.125 2.49479 45.6302 1.85938 45.0156C1.23438 44.401 0.765625 43.6979 0.453125 42.9062C0.151042 42.125 0 41.3281 0 40.5156C0 39.7135 0.145833 38.9271 0.4375 38.1562C0.729167 37.3854 1.15625 36.7031 1.71875 36.1094C2.28125 35.5052 2.97917 35.0208 3.8125 34.6562C4.64583 34.2917 5.60417 34.1094 6.6875 34.1094C7.75 34.1094 8.75521 34.2344 9.70312 34.4844C10.651 34.7344 11.5625 35.0729 12.4375 35.5C13.3125 35.9167 14.151 36.4062 14.9531 36.9688C15.7552 37.5312 16.5365 38.125 17.2969 38.75C17.901 37.7188 18.4792 36.6458 19.0312 35.5312C19.5938 34.4062 20.1354 33.2656 20.6562 32.1094C21.1875 30.9531 21.7031 29.7917 22.2031 28.625C22.7135 27.4583 23.2188 26.3125 23.7188 25.1875C23.5 25.1875 23.2552 25.1823 22.9844 25.1719C22.7135 25.151 22.4323 25.1302 22.1406 25.1094C21.849 25.0885 21.5573 25.0625 21.2656 25.0312C20.9844 24.9896 20.7188 24.9427 20.4688 24.8906C20 24.8073 19.5156 24.75 19.0156 24.7188C18.526 24.6771 18.0625 24.6042 17.625 24.5C17.1875 24.3854 16.7917 24.2135 16.4375 23.9844C16.0938 23.7448 15.8281 23.3906 15.6406 22.9219C15.5573 22.724 15.5156 22.5312 15.5156 22.3438C15.5156 22.1979 15.5469 22.0521 15.6094 21.9062C15.6719 21.7604 15.7604 21.6302 15.875 21.5156C16 21.3906 16.1406 21.2917 16.2969 21.2188C16.4635 21.1458 16.6458 21.1094 16.8438 21.1094C17.1667 21.1094 17.5104 21.2083 17.875 21.4062C18.2396 21.6042 18.599 21.8438 18.9531 22.125C19.3073 22.4062 19.6406 22.6979 19.9531 23C20.2656 23.2917 20.5312 23.5365 20.75 23.7344ZM7.51562 45.875C8.51562 45.875 9.44271 45.7292 10.2969 45.4375C11.151 45.1458 11.9479 44.7396 12.6875 44.2188C13.4271 43.6979 14.1146 43.0729 14.75 42.3438C15.3854 41.625 15.9844 40.8333 16.5469 39.9688C15.8177 39.3958 15.0625 38.8594 14.2812 38.3594C13.5104 37.8594 12.7031 37.4219 11.8594 37.0469C11.0156 36.6719 10.1302 36.3802 9.20312 36.1719C8.28646 35.9531 7.3125 35.8438 6.28125 35.8438C5.66667 35.8438 5.125 35.974 4.65625 36.2344C4.19792 36.4948 3.8125 36.8385 3.5 37.2656C3.1875 37.6927 2.94792 38.1823 2.78125 38.7344C2.625 39.2865 2.54688 39.8594 2.54688 40.4531C2.54688 41.1094 2.64583 41.7604 2.84375 42.4062C3.05208 43.0625 3.35938 43.6458 3.76562 44.1562C4.17188 44.6667 4.6875 45.0781 5.3125 45.3906C5.9375 45.7135 6.67188 45.875 7.51562 45.875ZM26.6875 24.0938C27.6979 23.75 28.6562 23.3229 29.5625 22.8125C30.4792 22.2917 31.3229 21.7344 32.0938 21.1406C32.875 20.5469 33.5781 19.9323 34.2031 19.2969C34.8281 18.6615 35.3594 18.0469 35.7969 17.4531C36.2448 16.8594 36.5833 16.3125 36.8125 15.8125C37.0521 15.3021 37.1719 14.8802 37.1719 14.5469C37.1719 14.0781 36.9323 13.8438 36.4531 13.8438C36.1094 13.8438 35.6667 13.9688 35.125 14.2188C34.5833 14.4688 33.9948 14.8229 33.3594 15.2812C32.7344 15.7396 32.0833 16.2865 31.4062 16.9219C30.7396 17.5469 30.1042 18.2396 29.5 19C28.8958 19.7604 28.3438 20.5729 27.8438 21.4375C27.3542 22.2917 26.9688 23.1771 26.6875 24.0938ZM28.25 36.875C28.1771 36.9167 28.1094 36.9375 28.0469 36.9375C27.9427 36.9375 27.8646 36.8958 27.8125 36.8125C27.7604 36.7188 27.7344 36.6042 27.7344 36.4688C27.7344 36.3229 27.7708 36.1667 27.8438 36C27.9167 35.8333 28.0521 35.6927 28.25 35.5781L34.0312 32.1719C34.75 31.7552 35.5156 31.3958 36.3281 31.0938C37.1406 30.7917 37.9635 30.5469 38.7969 30.3594C39.6406 30.1615 40.474 30.0208 41.2969 29.9375C42.1198 29.8438 42.8958 29.7969 43.625 29.7969C44.0417 29.7969 44.4323 29.8281 44.7969 29.8906C45.1615 29.9427 45.474 30.026 45.7344 30.1406C46.0052 30.2448 46.2135 30.375 46.3594 30.5312C46.5156 30.6875 46.5938 30.8646 46.5938 31.0625C46.5938 31.2083 46.5417 31.3125 46.4375 31.375C46.3333 31.4375 46.2083 31.4844 46.0625 31.5156C45.9271 31.5365 45.7812 31.5521 45.625 31.5625C45.4792 31.5729 45.3646 31.599 45.2812 31.6406C45.2188 31.8385 45.1198 32.1458 44.9844 32.5625C44.849 32.9688 44.7135 33.3906 44.5781 33.8281C44.4427 34.2552 44.3177 34.6406 44.2031 34.9844C44.099 35.3177 44.0417 35.5104 44.0312 35.5625C43.8958 36 43.7083 36.5573 43.4688 37.2344C43.2396 37.901 42.9844 38.7969 42.7031 39.9219C42.7135 39.9219 42.8281 39.8646 43.0469 39.75C43.276 39.625 43.5677 39.4635 43.9219 39.2656C44.2865 39.0677 44.6979 38.8385 45.1562 38.5781C45.6146 38.3177 46.0885 38.0521 46.5781 37.7812L50.3125 35.5781C50.4583 35.4948 50.5833 35.4531 50.6875 35.4531C50.8021 35.4531 50.8906 35.4948 50.9531 35.5781C51.0156 35.651 51.0469 35.7448 51.0469 35.8594C51.0469 36.0052 50.9896 36.1771 50.875 36.375C50.7604 36.5625 50.5729 36.7292 50.3125 36.875L42 41.75C41.7917 41.875 41.599 41.9635 41.4219 42.0156C41.2448 42.0677 41.0833 42.0938 40.9375 42.0938C40.7292 42.0938 40.5521 42.0469 40.4062 41.9531C40.2604 41.8594 40.1406 41.7292 40.0469 41.5625C39.9531 41.3958 39.8802 41.2083 39.8281 41C39.7865 40.7812 39.7656 40.5521 39.7656 40.3125C39.7656 40.0521 39.7917 39.7917 39.8438 39.5312C39.8958 39.2708 39.9635 39.0208 40.0469 38.7812C39.7448 39.375 39.3906 39.8906 38.9844 40.3281C38.5885 40.7656 38.1615 41.1354 37.7031 41.4375C37.2552 41.7292 36.7917 41.9479 36.3125 42.0938C35.8333 42.2396 35.3646 42.3125 34.9062 42.3125C34.4479 42.3125 34.0156 42.2396 33.6094 42.0938C33.2031 41.9479 32.8438 41.7344 32.5312 41.4531C32.2292 41.1615 31.9896 40.8021 31.8125 40.375C31.6354 39.9479 31.5469 39.4531 31.5469 38.8906C31.5469 38.5573 31.5781 38.1875 31.6406 37.7812C31.7135 37.375 31.8073 36.9635 31.9219 36.5469C32.0365 36.1302 32.1667 35.724 32.3125 35.3281C32.4583 34.9219 32.6094 34.5521 32.7656 34.2188L28.25 36.875ZM42.4531 31.125C41.6198 31.125 40.8229 31.2656 40.0625 31.5469C39.3021 31.8281 38.5938 32.1979 37.9375 32.6562C37.2917 33.1146 36.7031 33.6406 36.1719 34.2344C35.651 34.8177 35.2031 35.4219 34.8281 36.0469C34.4635 36.6615 34.1771 37.2708 33.9688 37.875C33.7708 38.4792 33.6719 39.0208 33.6719 39.5C33.6719 40.0312 33.7865 40.4635 34.0156 40.7969C34.2552 41.1198 34.6406 41.2812 35.1719 41.2812C35.4844 41.2812 35.8229 41.1875 36.1875 41C36.5625 40.8021 36.9375 40.5469 37.3125 40.2344C37.6979 39.9115 38.0729 39.5521 38.4375 39.1562C38.8125 38.75 39.1562 38.3438 39.4688 37.9375C39.7812 37.5208 40.0521 37.1198 40.2812 36.7344C40.5208 36.3385 40.6927 35.9948 40.7969 35.7031L42.4531 31.125ZM76.8125 42.3594C76.7917 42.4115 76.6302 42.5104 76.3281 42.6562C76.0365 42.8125 75.6823 42.974 75.2656 43.1406C74.8594 43.3177 74.4271 43.4688 73.9688 43.5938C73.5208 43.7292 73.125 43.7969 72.7812 43.7969C72.5521 43.7969 72.3646 43.7552 72.2188 43.6719C72.0833 43.5885 72.0156 43.4531 72.0156 43.2656C72.0156 43.2031 72.026 43.1406 72.0469 43.0781C72.0677 43.026 72.0938 42.9427 72.125 42.8281C72.5208 41.3385 72.9271 39.8542 73.3438 38.375C73.7604 36.8958 74.1667 35.4531 74.5625 34.0469C74.9583 32.6302 75.3333 31.2656 75.6875 29.9531C76.0417 28.6302 76.349 27.3906 76.6094 26.2344C76.8698 25.0677 77.0781 24 77.2344 23.0312C77.3906 22.0521 77.4688 21.1979 77.4688 20.4688C77.4688 18.1875 77.276 16.125 76.8906 14.2812C76.5156 12.4375 75.9792 10.8021 75.2812 9.375C74.5938 7.9375 73.7656 6.70312 72.7969 5.67188C71.8385 4.63021 70.776 3.77604 69.6094 3.10938C68.4427 2.44271 67.1927 1.95312 65.8594 1.64062C64.5365 1.31771 63.1667 1.15625 61.75 1.15625C60.0729 1.15625 58.3646 1.36458 56.625 1.78125C54.8854 2.19792 53.1719 2.79688 51.4844 3.57812C49.7865 4.35938 48.1458 5.3125 46.5625 6.4375C44.9688 7.5625 43.4896 8.83333 42.125 10.25C40.75 11.6562 39.5208 13.2031 38.4375 14.8906C37.3542 16.5677 36.4688 18.3542 35.7812 20.25C35.5729 20.8125 35.4062 21.2031 35.2812 21.4219C35.1458 21.6302 35.0365 21.7344 34.9531 21.7344C34.8594 21.7344 34.7917 21.625 34.75 21.4062C34.7083 21.1771 34.6875 20.9479 34.6875 20.7188C34.6875 20.6146 34.6927 20.526 34.7031 20.4531C34.7031 20.3698 34.7083 20.3021 34.7188 20.25C35.2083 18.1979 35.9583 16.2917 36.9688 14.5312C37.9792 12.7708 39.1771 11.1667 40.5625 9.71875C41.9479 8.27083 43.4896 6.98958 45.1875 5.875C46.8854 4.75 48.6667 3.80729 50.5312 3.04688C52.3958 2.28646 54.3125 1.70833 56.2812 1.3125C58.25 0.916667 60.1979 0.71875 62.125 0.71875C63.8333 0.71875 65.4948 0.880208 67.1094 1.20312C68.7344 1.52604 70.2604 2.01562 71.6875 2.67188C73.125 3.32812 74.4427 4.16146 75.6406 5.17188C76.8385 6.18229 77.8698 7.38021 78.7344 8.76562C79.599 10.1406 80.2708 11.7083 80.75 13.4688C81.2396 15.2188 81.4844 17.1667 81.4844 19.3125C81.4844 20.3333 81.401 21.5677 81.2344 23.0156C81.0677 24.4531 80.8073 26.0417 80.4531 27.7812C80.099 29.5104 79.6458 31.3542 79.0938 33.3125C78.5417 35.2604 77.8854 37.25 77.125 39.2812L90.3438 17.9062C90.5938 17.5208 90.875 17.1198 91.1875 16.7031C91.5 16.276 91.8281 15.8854 92.1719 15.5312C92.526 15.1667 92.8854 14.8698 93.25 14.6406C93.6146 14.401 93.974 14.2812 94.3281 14.2812C94.6823 14.2812 94.9583 14.3125 95.1562 14.375C95.3542 14.4271 95.5 14.4948 95.5938 14.5781C95.6979 14.6615 95.7604 14.7604 95.7812 14.875C95.8125 14.9792 95.8281 15.0833 95.8281 15.1875L76.8125 42.3594ZM105.25 36.875C103.635 37.8021 102.266 38.6094 101.141 39.2969C100.016 39.974 99.0573 40.5365 98.2656 40.9844C97.474 41.4219 96.8021 41.75 96.25 41.9688C95.7083 42.1771 95.2135 42.2812 94.7656 42.2812C94.3281 42.2812 93.9531 42.2292 93.6406 42.125C93.3385 42.0208 93.0885 41.8802 92.8906 41.7031C92.6927 41.526 92.5469 41.3125 92.4531 41.0625C92.3698 40.8125 92.3281 40.5417 92.3281 40.25C92.3281 40.0312 92.375 39.8073 92.4688 39.5781C92.5625 39.349 92.6771 39.1146 92.8125 38.875C92.9583 38.6354 93.1094 38.3854 93.2656 38.125C93.4219 37.8542 93.5677 37.5677 93.7031 37.2656L96.0781 31.9531L87.6875 36.875C87.5521 36.9271 87.4583 36.9531 87.4062 36.9531C87.2812 36.9531 87.1719 36.9115 87.0781 36.8281C86.974 36.7448 86.9219 36.6354 86.9219 36.5C86.9219 36.375 86.9792 36.2344 87.0938 36.0781C87.1979 35.9219 87.3958 35.7552 87.6875 35.5781L91.7344 33.2188C92.2656 32.9062 92.8021 32.5938 93.3438 32.2812C93.8854 31.9688 94.3906 31.6771 94.8594 31.4062C95.3385 31.1354 95.7656 30.8958 96.1406 30.6875C96.526 30.4688 96.8229 30.3021 97.0312 30.1875H99.0469C99.0885 30.2188 99.125 30.2708 99.1562 30.3438C99.1875 30.4167 99.2031 30.526 99.2031 30.6719C99.2031 30.9427 99.125 31.3281 98.9688 31.8281C98.8125 32.3177 98.6146 32.8698 98.375 33.4844C98.1458 34.099 97.8854 34.7448 97.5938 35.4219C97.3125 36.0885 97.0469 36.724 96.7969 37.3281C96.5469 37.9219 96.2865 38.5156 96.0156 39.1094C95.7448 39.7031 95.474 40.3125 95.2031 40.9375C95.4844 40.9375 95.9271 40.7969 96.5312 40.5156C97.1458 40.2344 97.8854 39.8542 98.75 39.375C99.625 38.8854 100.609 38.3177 101.703 37.6719C102.807 37.0156 103.99 36.3177 105.25 35.5781C105.292 35.5365 105.37 35.5156 105.484 35.5156C105.609 35.5156 105.724 35.5573 105.828 35.6406C105.943 35.724 106 35.8385 106 35.9844C106 36.1094 105.943 36.25 105.828 36.4062C105.724 36.5521 105.531 36.7083 105.25 36.875ZM100.938 24.7188C101 24.7188 101.115 24.724 101.281 24.7344C101.458 24.7344 101.656 24.7448 101.875 24.7656C102.094 24.7865 102.323 24.8229 102.562 24.875C102.802 24.9167 103.021 24.9844 103.219 25.0781C103.417 25.1615 103.583 25.2708 103.719 25.4062C103.854 25.5417 103.927 25.7083 103.938 25.9062L101.672 27.625L100.641 28.1094C100.453 28.1094 100.307 28.0573 100.203 27.9531C100.099 27.849 100.021 27.7396 99.9688 27.625L100.938 24.7188ZM105.25 36.875C105.146 36.9479 105.026 36.9844 104.891 36.9844C104.755 36.9844 104.646 36.9479 104.562 36.875C104.479 36.7917 104.438 36.6875 104.438 36.5625C104.438 36.4271 104.5 36.276 104.625 36.1094C104.74 35.9323 104.948 35.7552 105.25 35.5781L109.203 33.25C109.495 32.4271 109.87 31.7188 110.328 31.125C110.797 30.5208 111.307 30.026 111.859 29.6406C112.422 29.2448 113.005 28.9531 113.609 28.7656C114.224 28.5677 114.818 28.4688 115.391 28.4688C115.974 28.4688 116.453 28.625 116.828 28.9375C117.214 29.2396 117.406 29.7135 117.406 30.3594C117.406 30.7552 117.26 31.1719 116.969 31.6094C116.688 32.0365 116.297 32.4635 115.797 32.8906C115.307 33.3073 114.729 33.6979 114.062 34.0625C113.396 34.4271 112.688 34.7344 111.938 34.9844C111.938 35.4844 111.927 35.9583 111.906 36.4062C111.896 36.8542 111.891 37.276 111.891 37.6719C111.891 38.0052 111.901 38.3125 111.922 38.5938C111.943 38.8646 111.984 39.099 112.047 39.2969C112.12 39.4844 112.214 39.6354 112.328 39.75C112.453 39.8542 112.609 39.9062 112.797 39.9062C113.089 39.9062 113.438 39.7917 113.844 39.5625C114.26 39.3229 114.781 39.0208 115.406 38.6562C115.969 38.3229 116.688 37.9062 117.562 37.4062C118.438 36.9062 119.505 36.2969 120.766 35.5781C120.807 35.5469 120.865 35.5312 120.938 35.5312C121.052 35.5312 121.151 35.5833 121.234 35.6875C121.328 35.7812 121.375 35.901 121.375 36.0469C121.375 36.1719 121.328 36.3073 121.234 36.4531C121.151 36.599 120.995 36.7396 120.766 36.875C119.734 37.4896 118.734 38.1146 117.766 38.75C116.797 39.375 115.88 39.9479 115.016 40.4688C114.161 40.9792 113.37 41.401 112.641 41.7344C111.911 42.0573 111.276 42.2188 110.734 42.2188C110.37 42.2188 110.047 42.1406 109.766 41.9844C109.495 41.8281 109.26 41.5781 109.062 41.2344C108.875 40.8906 108.729 40.4427 108.625 39.8906C108.531 39.3281 108.484 38.6458 108.484 37.8438C108.484 37.7188 108.49 37.5208 108.5 37.25C108.521 36.9688 108.547 36.6719 108.578 36.3594C108.62 36.0365 108.667 35.724 108.719 35.4219C108.771 35.1198 108.833 34.8854 108.906 34.7188C108.833 34.7604 108.724 34.8229 108.578 34.9062C108.443 34.9896 108.281 35.0885 108.094 35.2031C107.906 35.3073 107.708 35.4219 107.5 35.5469C107.292 35.6719 107.083 35.7969 106.875 35.9219L105.25 36.875ZM115.719 30.4844C115.74 30.4219 115.75 30.3542 115.75 30.2812C115.75 30.0208 115.703 29.8281 115.609 29.7031C115.526 29.5781 115.38 29.5156 115.172 29.5156C114.932 29.5156 114.656 29.6094 114.344 29.7969C114.031 29.974 113.724 30.2396 113.422 30.5938C113.13 30.9479 112.865 31.3906 112.625 31.9219C112.396 32.4531 112.24 33.0625 112.156 33.75C112.583 33.5312 113 33.2812 113.406 33C113.812 32.7083 114.177 32.4167 114.5 32.125C114.833 31.8229 115.104 31.5312 115.312 31.25C115.531 30.9583 115.667 30.7031 115.719 30.4844Z" fill="black"/>
<path fill-rule="evenodd" clip-rule="evenodd" d="M48.0409 12.0391C47.9796 12.0988 47.9899 17.3333 48.0537 18.569C48.1668 20.757 48.7272 22.4467 49.9073 24.1584C50.9478 25.6676 52.1286 26.7308 53.7674 27.6339C55.4676 28.5707 57.2443 28.9862 59.561 28.9886L60.7162 28.9899L60.6938 25.2163C60.6722 21.5879 60.6657 21.4164 60.5249 20.7606C60.4444 20.3855 60.2925 19.8224 60.1874 19.5095C58.8479 15.5189 55.3042 12.6439 51.0442 12.0917C50.37 12.0043 48.1171 11.9648 48.0409 12.0391ZM68.7033 21.1267C66.3995 21.5333 64.517 22.8998 63.4793 24.9189C62.986 25.8787 62.7866 26.7153 62.7372 28.0318L62.7008 29L65.3214 28.975C67.9042 28.9504 67.9511 28.9476 68.5717 28.7848C71.242 28.0842 73.2845 26.0028 73.806 23.4507C73.9428 22.7808 74.0479 21.3816 73.9775 21.1657C73.9342 21.0328 73.9223 21.0321 71.5543 21.0378C69.8913 21.0418 69.0326 21.0686 68.7033 21.1267Z" fill="#1AAA55"/>
</svg>
